<svg width="512" height="512" viewBox="0 0 512 512" fill="none" xmlns="http://www.w3.org/2000/svg">
  <rect width="512" height="512" rx="128" fill="url(#gradient)" />
  <path d="M320 164C320 151.333 315.333 141.333 306 134C296.667 126.667 283.333 123 266 123H196V163H261C269 163 275 164.667 279 168C283 171.333 285 176 285 182C285 188 283 192.667 279 196C275 199.333 269 201 261 201H196V241H266C283.333 241 296.667 237.333 306 230C315.333 222.667 320 212.667 320 200C320 193.333 318.333 187.333 315 182C311.667 176.667 307 172.667 301 170C307 167.333 311.667 163.333 315 158C318.333 152.667 320 146.667 320 164Z" fill="white"/>
  <path d="M196 279V319H266C283.333 319 296.667 315.333 306 308C315.333 300.667 320 290.667 320 278C320 265.333 315.333 255.333 306 248C296.667 240.667 283.333 237 266 237H196V277H261C269 277 275 278.667 279 282C283 285.333 285 290 285 296C285 302 283 306.667 279 310C275 313.333 269 315 261 315H196V355H266C283.333 355 296.667 351.333 306 344C315.333 336.667 320 326.667 320 314C320 307.333 318.333 301.333 315 296C311.667 290.667 307 286.667 301 284C307 281.333 311.667 277.333 315 272C318.333 266.667 320 260.667 320 279Z" fill="white"/>
  <defs>
    <linearGradient id="gradient" x1="0" y1="0" x2="512" y2="512" gradientUnits="userSpaceOnUse">
      <stop offset="0%" stop-color="#FF8F71"/>
      <stop offset="100%" stop-color="#FF3D3D"/>
    </linearGradient>
  </defs>
</svg>